<?xml version="1.0" encoding="UTF-8"?>
<svg xmlns="http://www.w3.org/2000/svg" xmlns:xlink="http://www.w3.org/1999/xlink" width="40px" height="40px" viewBox="0 0 40 40" version="1.1">
<defs>
<radialGradient id="radial0" gradientUnits="userSpaceOnUse" cx="19.1111" cy="128.4444" fx="19.1111" fy="128.4444" r="163.5519" gradientTransform="matrix(0.3125,0,0,0.3125,0,0)">
<stop offset="0" style="stop-color:rgb(100%,69.411765%,25.098039%);stop-opacity:1;"/>
<stop offset="0.2559" style="stop-color:rgb(100%,32.941176%,27.058824%);stop-opacity:1;"/>
<stop offset="0.599" style="stop-color:rgb(98.823529%,16.862745%,50.980392%);stop-opacity:1;"/>
<stop offset="1" style="stop-color:rgb(55.686275%,25.098039%,71.764706%);stop-opacity:1;"/>
</radialGradient>
</defs>
<g id="surface1">
<path style=" stroke:none;fill-rule:evenodd;fill:url(#radial0);" d="M 33.074219 9.324219 C 33.074219 10.648438 32 11.722656 30.675781 11.722656 C 29.351562 11.722656 28.277344 10.648438 28.277344 9.324219 C 28.277344 8 29.351562 6.925781 30.675781 6.925781 C 32 6.925781 33.074219 8 33.074219 9.324219 Z M 20 26.667969 C 16.316406 26.667969 13.332031 23.683594 13.332031 20 C 13.332031 16.316406 16.316406 13.332031 20 13.332031 C 23.683594 13.332031 26.667969 16.316406 26.667969 20 C 26.667969 23.683594 23.683594 26.667969 20 26.667969 Z M 20 9.730469 C 14.328125 9.730469 9.730469 14.328125 9.730469 20 C 9.730469 25.671875 14.328125 30.269531 20 30.269531 C 25.671875 30.269531 30.269531 25.671875 30.269531 20 C 30.269531 14.328125 25.671875 9.730469 20 9.730469 Z M 20 3.605469 C 25.339844 3.605469 25.972656 3.625 28.082031 3.71875 C 30.03125 3.808594 31.089844 4.136719 31.796875 4.410156 C 32.730469 4.773438 33.394531 5.207031 34.09375 5.90625 C 34.796875 6.605469 35.226562 7.269531 35.589844 8.203125 C 35.863281 8.910156 36.191406 9.96875 36.28125 11.917969 C 36.375 14.027344 36.398438 14.660156 36.398438 20 C 36.398438 25.339844 36.375 25.972656 36.28125 28.082031 C 36.191406 30.03125 35.867188 31.089844 35.589844 31.796875 C 35.226562 32.730469 34.796875 33.394531 34.09375 34.09375 C 33.394531 34.796875 32.730469 35.230469 31.796875 35.59375 C 31.089844 35.867188 30.03125 36.191406 28.082031 36.28125 C 25.972656 36.375 25.339844 36.398438 20 36.398438 C 14.660156 36.398438 14.027344 36.375 11.917969 36.28125 C 9.96875 36.191406 8.910156 35.867188 8.203125 35.59375 C 7.269531 35.230469 6.605469 34.796875 5.90625 34.09375 C 5.203125 33.394531 4.769531 32.730469 4.410156 31.796875 C 4.132812 31.089844 3.808594 30.03125 3.71875 28.082031 C 3.625 25.972656 3.601562 25.339844 3.601562 20 C 3.601562 14.660156 3.625 14.027344 3.71875 11.917969 C 3.808594 9.96875 4.132812 8.910156 4.410156 8.203125 C 4.769531 7.273438 5.203125 6.605469 5.90625 5.90625 C 6.605469 5.207031 7.269531 4.773438 8.203125 4.410156 C 8.910156 4.136719 9.96875 3.808594 11.917969 3.71875 C 14.027344 3.625 14.660156 3.605469 20 3.605469 Z M 20 0 C 14.570312 0 13.886719 0.0234375 11.753906 0.121094 C 9.625 0.21875 8.171875 0.554688 6.898438 1.050781 C 5.585938 1.5625 4.46875 2.246094 3.355469 3.355469 C 2.246094 4.46875 1.5625 5.585938 1.050781 6.898438 C 0.554688 8.171875 0.21875 9.625 0.121094 11.753906 C 0.0234375 13.886719 0 14.570312 0 20 C 0 25.429688 0.0234375 26.113281 0.121094 28.246094 C 0.21875 30.375 0.554688 31.828125 1.050781 33.101562 C 1.5625 34.414062 2.246094 35.53125 3.355469 36.644531 C 4.46875 37.753906 5.585938 38.4375 6.898438 38.949219 C 8.171875 39.445312 9.625 39.78125 11.753906 39.878906 C 13.886719 39.976562 14.570312 40 20 40 C 25.429688 40 26.113281 39.976562 28.246094 39.878906 C 30.375 39.78125 31.828125 39.445312 33.101562 38.949219 C 34.414062 38.4375 35.53125 37.753906 36.644531 36.644531 C 37.753906 35.53125 38.4375 34.414062 38.949219 33.101562 C 39.445312 31.828125 39.78125 30.375 39.878906 28.246094 C 39.976562 26.113281 40 25.429688 40 20 C 40 14.570312 39.976562 13.886719 39.878906 11.753906 C 39.78125 9.625 39.445312 8.171875 38.949219 6.898438 C 38.4375 5.585938 37.753906 4.46875 36.644531 3.355469 C 35.53125 2.246094 34.414062 1.5625 33.101562 1.050781 C 31.828125 0.554688 30.375 0.21875 28.246094 0.121094 C 26.113281 0.0234375 25.429688 0 20 0 Z M 20 0 "/>
</g>
</svg>
