<?xml version="1.0" encoding="UTF-8"?>
<svg xmlns="http://www.w3.org/2000/svg" xmlns:xlink="http://www.w3.org/1999/xlink" width="15px" height="15px" viewBox="0 0 15 15" version="1.1">
<defs>
<radialGradient id="radial0" gradientUnits="userSpaceOnUse" cx="19.1111" cy="128.4444" fx="19.1111" fy="128.4444" r="163.5519" gradientTransform="matrix(0.117188,0,0,0.117188,0,0)">
<stop offset="0" style="stop-color:rgb(100%,69.411765%,25.098039%);stop-opacity:1;"/>
<stop offset="0.2559" style="stop-color:rgb(100%,32.941176%,27.058824%);stop-opacity:1;"/>
<stop offset="0.599" style="stop-color:rgb(98.823529%,16.862745%,50.980392%);stop-opacity:1;"/>
<stop offset="1" style="stop-color:rgb(55.686275%,25.098039%,71.764706%);stop-opacity:1;"/>
</radialGradient>
</defs>
<g id="surface1">
<path style=" stroke:none;fill-rule:evenodd;fill:url(#radial0);" d="M 12.402344 3.496094 C 12.402344 3.992188 12 4.394531 11.503906 4.394531 C 11.007812 4.394531 10.605469 3.992188 10.605469 3.496094 C 10.605469 3 11.007812 2.597656 11.503906 2.597656 C 12 2.597656 12.402344 3 12.402344 3.496094 Z M 7.5 10 C 6.117188 10 5 8.882812 5 7.5 C 5 6.117188 6.117188 5 7.5 5 C 8.882812 5 10 6.117188 10 7.5 C 10 8.882812 8.882812 10 7.5 10 Z M 7.5 3.648438 C 5.371094 3.648438 3.648438 5.371094 3.648438 7.5 C 3.648438 9.628906 5.371094 11.351562 7.5 11.351562 C 9.628906 11.351562 11.351562 9.628906 11.351562 7.5 C 11.351562 5.371094 9.628906 3.648438 7.5 3.648438 Z M 7.5 1.351562 C 9.5 1.351562 9.742188 1.359375 10.53125 1.398438 C 11.257812 1.429688 11.660156 1.554688 11.921875 1.65625 C 12.273438 1.792969 12.523438 1.953125 12.78125 2.21875 C 13.046875 2.476562 13.207031 2.726562 13.34375 3.078125 C 13.445312 3.339844 13.570312 3.742188 13.601562 4.46875 C 13.640625 5.257812 13.648438 5.5 13.648438 7.5 C 13.648438 9.5 13.640625 9.742188 13.601562 10.53125 C 13.570312 11.257812 13.453125 11.660156 13.34375 11.921875 C 13.207031 12.273438 13.046875 12.523438 12.78125 12.78125 C 12.523438 13.046875 12.273438 13.210938 11.921875 13.351562 C 11.660156 13.453125 11.257812 13.570312 10.53125 13.601562 C 9.742188 13.640625 9.5 13.648438 7.5 13.648438 C 5.5 13.648438 5.257812 13.640625 4.46875 13.601562 C 3.742188 13.570312 3.339844 13.453125 3.078125 13.351562 C 2.726562 13.210938 2.476562 13.046875 2.21875 12.78125 C 1.953125 12.523438 1.789062 12.273438 1.65625 11.921875 C 1.546875 11.660156 1.429688 11.257812 1.398438 10.53125 C 1.359375 9.742188 1.351562 9.5 1.351562 7.5 C 1.351562 5.5 1.359375 5.257812 1.398438 4.46875 C 1.429688 3.742188 1.546875 3.339844 1.65625 3.078125 C 1.789062 2.730469 1.953125 2.476562 2.21875 2.21875 C 2.476562 1.953125 2.726562 1.792969 3.078125 1.65625 C 3.339844 1.554688 3.742188 1.429688 4.46875 1.398438 C 5.257812 1.359375 5.5 1.351562 7.5 1.351562 Z M 7.5 0 C 5.464844 0 5.210938 0.0117188 4.410156 0.0429688 C 3.609375 0.0820312 3.066406 0.210938 2.585938 0.394531 C 2.09375 0.585938 1.675781 0.84375 1.257812 1.257812 C 0.84375 1.675781 0.585938 2.09375 0.394531 2.585938 C 0.210938 3.066406 0.0820312 3.609375 0.0429688 4.410156 C 0.0117188 5.210938 0 5.464844 0 7.5 C 0 9.535156 0.0117188 9.789062 0.0429688 10.589844 C 0.0820312 11.390625 0.210938 11.933594 0.394531 12.414062 C 0.585938 12.90625 0.84375 13.324219 1.257812 13.742188 C 1.675781 14.15625 2.09375 14.414062 2.585938 14.605469 C 3.066406 14.789062 3.609375 14.917969 4.410156 14.957031 C 5.210938 14.992188 5.464844 15 7.5 15 C 9.535156 15 9.789062 14.992188 10.589844 14.957031 C 11.390625 14.917969 11.933594 14.789062 12.414062 14.605469 C 12.90625 14.414062 13.324219 14.15625 13.742188 13.742188 C 14.15625 13.324219 14.414062 12.90625 14.605469 12.414062 C 14.789062 11.933594 14.917969 11.390625 14.957031 10.589844 C 14.992188 9.789062 15 9.535156 15 7.5 C 15 5.464844 14.992188 5.210938 14.957031 4.410156 C 14.917969 3.609375 14.789062 3.066406 14.605469 2.585938 C 14.414062 2.09375 14.15625 1.675781 13.742188 1.257812 C 13.324219 0.84375 12.90625 0.585938 12.414062 0.394531 C 11.933594 0.210938 11.390625 0.0820312 10.589844 0.0429688 C 9.789062 0.0117188 9.535156 0 7.5 0 Z M 7.5 0 "/>
</g>
</svg>
