<?xml version="1.0" encoding="UTF-8"?>
<svg xmlns="http://www.w3.org/2000/svg" xmlns:xlink="http://www.w3.org/1999/xlink" width="12px" height="12px" viewBox="0 0 12 12" version="1.1">
<defs>
<radialGradient id="radial0" gradientUnits="userSpaceOnUse" cx="19.1111" cy="128.4444" fx="19.1111" fy="128.4444" r="163.5519" gradientTransform="matrix(0.09375,0,0,0.09375,0,0)">
<stop offset="0" style="stop-color:rgb(100%,69.411765%,25.098039%);stop-opacity:1;"/>
<stop offset="0.2559" style="stop-color:rgb(100%,32.941176%,27.058824%);stop-opacity:1;"/>
<stop offset="0.599" style="stop-color:rgb(98.823529%,16.862745%,50.980392%);stop-opacity:1;"/>
<stop offset="1" style="stop-color:rgb(55.686275%,25.098039%,71.764706%);stop-opacity:1;"/>
</radialGradient>
</defs>
<g id="surface1">
<path style=" stroke:none;fill-rule:evenodd;fill:url(#radial0);" d="M 9.921875 2.796875 C 9.921875 3.195312 9.601562 3.515625 9.203125 3.515625 C 8.804688 3.515625 8.484375 3.195312 8.484375 2.796875 C 8.484375 2.398438 8.804688 2.078125 9.203125 2.078125 C 9.601562 2.078125 9.921875 2.398438 9.921875 2.796875 Z M 6 8 C 4.894531 8 4 7.105469 4 6 C 4 4.894531 4.894531 4 6 4 C 7.105469 4 8 4.894531 8 6 C 8 7.105469 7.105469 8 6 8 Z M 6 2.917969 C 4.296875 2.917969 2.917969 4.296875 2.917969 6 C 2.917969 7.703125 4.296875 9.082031 6 9.082031 C 7.703125 9.082031 9.082031 7.703125 9.082031 6 C 9.082031 4.296875 7.703125 2.917969 6 2.917969 Z M 6 1.082031 C 7.601562 1.082031 7.792969 1.085938 8.425781 1.117188 C 9.007812 1.144531 9.328125 1.242188 9.539062 1.324219 C 9.820312 1.433594 10.019531 1.5625 10.226562 1.773438 C 10.4375 1.980469 10.566406 2.179688 10.675781 2.460938 C 10.757812 2.671875 10.855469 2.992188 10.882812 3.574219 C 10.914062 4.207031 10.917969 4.398438 10.917969 6 C 10.917969 7.601562 10.914062 7.792969 10.882812 8.425781 C 10.855469 9.007812 10.761719 9.328125 10.675781 9.539062 C 10.566406 9.820312 10.4375 10.019531 10.226562 10.226562 C 10.019531 10.4375 9.820312 10.570312 9.539062 10.679688 C 9.328125 10.761719 9.007812 10.855469 8.425781 10.882812 C 7.792969 10.914062 7.601562 10.917969 6 10.917969 C 4.398438 10.917969 4.207031 10.914062 3.574219 10.882812 C 2.992188 10.855469 2.671875 10.761719 2.460938 10.679688 C 2.179688 10.570312 1.980469 10.4375 1.773438 10.226562 C 1.5625 10.019531 1.429688 9.820312 1.324219 9.539062 C 1.238281 9.328125 1.144531 9.007812 1.117188 8.425781 C 1.085938 7.792969 1.082031 7.601562 1.082031 6 C 1.082031 4.398438 1.085938 4.207031 1.117188 3.574219 C 1.144531 2.992188 1.238281 2.671875 1.324219 2.460938 C 1.429688 2.183594 1.5625 1.980469 1.773438 1.773438 C 1.980469 1.5625 2.179688 1.433594 2.460938 1.324219 C 2.671875 1.242188 2.992188 1.144531 3.574219 1.117188 C 4.207031 1.085938 4.398438 1.082031 6 1.082031 Z M 6 0 C 4.371094 0 4.167969 0.0078125 3.527344 0.0351562 C 2.886719 0.0664062 2.453125 0.167969 2.070312 0.316406 C 1.675781 0.46875 1.339844 0.675781 1.007812 1.007812 C 0.675781 1.339844 0.46875 1.675781 0.316406 2.070312 C 0.167969 2.453125 0.0664062 2.886719 0.0351562 3.527344 C 0.0078125 4.167969 0 4.371094 0 6 C 0 7.628906 0.0078125 7.832031 0.0351562 8.472656 C 0.0664062 9.113281 0.167969 9.546875 0.316406 9.929688 C 0.46875 10.324219 0.675781 10.660156 1.007812 10.992188 C 1.339844 11.324219 1.675781 11.53125 2.070312 11.683594 C 2.453125 11.832031 2.886719 11.933594 3.527344 11.964844 C 4.167969 11.992188 4.371094 12 6 12 C 7.628906 12 7.832031 11.992188 8.472656 11.964844 C 9.113281 11.933594 9.546875 11.832031 9.929688 11.683594 C 10.324219 11.53125 10.660156 11.324219 10.992188 10.992188 C 11.324219 10.660156 11.53125 10.324219 11.683594 9.929688 C 11.832031 9.546875 11.933594 9.113281 11.964844 8.472656 C 11.992188 7.832031 12 7.628906 12 6 C 12 4.371094 11.992188 4.167969 11.964844 3.527344 C 11.933594 2.886719 11.832031 2.453125 11.683594 2.070312 C 11.53125 1.675781 11.324219 1.339844 10.992188 1.007812 C 10.660156 0.675781 10.324219 0.46875 9.929688 0.316406 C 9.546875 0.167969 9.113281 0.0664062 8.472656 0.0351562 C 7.832031 0.0078125 7.628906 0 6 0 Z M 6 0 "/>
</g>
</svg>
